<svg width="32" height="32" viewBox="0 0 32 32" fill="none" xmlns="http://www.w3.org/2000/svg">
<g clip-path="url(#clip0_2_19)">
<path d="M16 7.86665C17.5467 7.86665 18.8 9.11998 18.8 10.6666C18.8 12.2133 17.5467 13.4666 16 13.4666C14.4533 13.4666 13.2 12.2133 13.2 10.6666C13.2 9.11998 14.4533 7.86665 16 7.86665ZM16 19.8666C19.96 19.8666 24.1333 21.8133 24.1333 22.6666V24.1333H7.86668V22.6666C7.86668 21.8133 12.04 19.8666 16 19.8666ZM16 5.33331C13.0533 5.33331 10.6667 7.71998 10.6667 10.6666C10.6667 13.6133 13.0533 16 16 16C18.9467 16 21.3333 13.6133 21.3333 10.6666C21.3333 7.71998 18.9467 5.33331 16 5.33331ZM16 17.3333C12.44 17.3333 5.33334 19.12 5.33334 22.6666V26.6666H26.6667V22.6666C26.6667 19.12 19.56 17.3333 16 17.3333Z" fill="#1C1C1E"/>
</g>
<defs>
<clipPath id="clip0_2_19">
<rect width="32" height="32" fill="white"/>
</clipPath>
</defs>
</svg>
