<svg width="67" height="19" viewBox="0 0 67 19" fill="none" xmlns="http://www.w3.org/2000/svg">
<path d="M5 17.664C5 17.904 4.248 18.024 2.744 18.024L1.4 17.952C0.6 17.888 0.2 17.776 0.2 17.616V1.512C0.2 1.24 1 1.104 2.6 1.104C4.2 1.104 5 1.24 5 1.512V7.656L7.928 1.512C8.04 1.288 8.68 1.176 9.848 1.176C11.976 1.176 13.096 1.36 13.208 1.728C13.208 1.76 13.2 1.792 13.184 1.824L9.008 9.36L13.856 16.056C13.856 16.088 13.704 16.224 13.4 16.464C12.664 17.104 11.8 17.608 10.808 17.976C10.504 18.088 10.2 18.144 9.896 18.144L9.32 18.096C8.808 17.968 8.408 17.64 8.12 17.112L5.384 11.88H5V17.664ZM15.9948 16.584C15.0028 15.48 14.5068 13.952 14.5068 12C14.5068 10.048 15.0028 8.52 15.9948 7.416C17.0028 6.312 18.3548 5.76 20.0508 5.76C21.7468 5.76 23.0908 6.312 24.0828 7.416C25.0748 8.52 25.5708 10.048 25.5708 12C25.5708 13.952 25.0748 15.48 24.0828 16.584C23.0908 17.688 21.7468 18.24 20.0508 18.24C18.3548 18.24 17.0028 17.688 15.9948 16.584ZM20.0508 9.768C19.1548 9.768 18.7068 10.504 18.7068 11.976C18.7068 13.448 19.1548 14.184 20.0508 14.184C20.9628 14.184 21.4188 13.448 21.4188 11.976C21.4188 10.504 20.9628 9.768 20.0508 9.768ZM31.6355 17.808C31.6355 17.952 30.8195 18.024 29.1875 18.024C27.9075 18.008 27.2675 17.944 27.2675 17.832V1.488C27.2675 1.248 28.0435 1.128 29.5955 1.128C30.9555 1.176 31.6355 1.256 31.6355 1.368V17.808ZM38.1986 17.856C38.1986 17.984 37.4626 18.048 35.9906 18.048C34.5346 18.048 33.8066 17.992 33.8066 17.88V6.096C33.8066 5.984 34.5346 5.928 35.9906 5.928C37.4626 5.928 38.1986 5.976 38.1986 6.072V17.856ZM38.1986 4.656C38.1986 4.768 37.4626 4.824 35.9906 4.824C34.5346 4.824 33.8066 4.776 33.8066 4.68V1.224C33.8066 1.064 34.5346 0.983999 35.9906 0.983999C37.4626 0.983999 38.1986 1.032 38.1986 1.128V4.656ZM40.4891 1.272C40.4891 1.08 41.1771 0.983999 42.5531 0.983999C43.9451 0.983999 44.6411 1.088 44.6411 1.296V5.952C45.3291 5.824 45.8171 5.76 46.1051 5.76C49.4651 5.76 51.1451 7.688 51.1451 11.544C51.1451 13.688 50.6251 15.344 49.5851 16.512C48.5611 17.664 47.0971 18.24 45.1931 18.24C43.3051 18.24 41.7371 17.816 40.4891 16.968V1.272ZM45.4331 9.504C45.1611 9.504 44.8971 9.592 44.6411 9.768V14.352C44.8651 14.448 45.0971 14.496 45.3371 14.496C45.5931 14.496 45.8491 14.4 46.1051 14.208C46.5531 13.888 46.7771 13.144 46.7771 11.976C46.7771 10.328 46.3291 9.504 45.4331 9.504ZM58.0938 17.976C58.0938 18.088 57.3658 18.144 55.9098 18.144C54.4538 18.112 53.7258 18.048 53.7258 17.952V9.984H53.0778C52.8218 9.984 52.6138 9.832 52.4538 9.528C52.3098 9.208 52.2378 8.816 52.2378 8.352C52.2378 6.624 52.7498 5.76 53.7738 5.76C54.4938 5.76 55.0938 5.984 55.5738 6.432C56.0538 6.864 56.2938 7.36 56.2938 7.92C56.6298 7.264 57.0778 6.744 57.6378 6.36C58.2138 5.96 58.7978 5.76 59.3898 5.76C60.3178 5.76 60.8778 6 61.0698 6.48C61.1178 6.608 61.1418 6.8 61.1418 7.056C61.1418 7.296 61.0618 7.736 60.9018 8.376C60.7578 9.016 60.6058 9.48 60.4458 9.768C60.2858 10.056 60.1898 10.2 60.1578 10.2C60.1258 10.2 59.9738 10.144 59.7018 10.032C59.4458 9.904 59.2138 9.84 59.0058 9.84C58.3978 9.84 58.0938 10.32 58.0938 11.28V17.976ZM66.7454 17.856C66.7454 17.984 66.0094 18.048 64.5374 18.048C63.0814 18.048 62.3534 17.992 62.3534 17.88V6.096C62.3534 5.984 63.0814 5.928 64.5374 5.928C66.0094 5.928 66.7454 5.976 66.7454 6.072V17.856ZM66.7454 4.656C66.7454 4.768 66.0094 4.824 64.5374 4.824C63.0814 4.824 62.3534 4.776 62.3534 4.68V1.224C62.3534 1.064 63.0814 0.983999 64.5374 0.983999C66.0094 0.983999 66.7454 1.032 66.7454 1.128V4.656Z" fill="url(#paint0_linear_2_49)"/>
<defs>
<linearGradient id="paint0_linear_2_49" x1="-35.6154" y1="-9.5" x2="154.34" y2="79.0486" gradientUnits="userSpaceOnUse">
<stop stop-color="#0033FF"/>
<stop offset="1" stop-color="#76B0FF"/>
</linearGradient>
</defs>
</svg>
